<?xml version="1.0" standalone="no"?>
<!DOCTYPE svg PUBLIC "-//W3C//DTD SVG 20010904//EN"
 "http://www.w3.org/TR/2001/REC-SVG-20010904/DTD/svg10.dtd">
<svg version="1.0" xmlns="http://www.w3.org/2000/svg"
 width="3873.000000pt" height="3873.000000pt" viewBox="0 0 3873.000000 3873.000000"
 preserveAspectRatio="xMidYMid meet">

<g transform="translate(0.000000,3873.000000) scale(0.100000,-0.100000)"
fill="#000000" stroke="none">
<path d="M0 19365 l0 -19365 19365 0 19365 0 0 19365 0 19365 -19365 0 -19365
0 0 -19365z m38710 0 l0 -19345 -19345 0 -19345 0 0 19345 0 19345 19345 0
19345 0 0 -19345z"/>
<path d="M18090 28700 c-682 -30 -1315 -122 -1955 -282 -1169 -292 -2271 -800
-3264 -1505 l-133 -95 -377 375 c-207 206 -387 380 -399 387 -35 17 -107 14
-142 -7 -17 -10 -41 -34 -53 -53 l-22 -35 0 -1225 c0 -1207 0 -1225 20 -1259
11 -19 33 -43 48 -55 l28 -21 1231 -3 1231 -2 42 25 c46 26 75 74 75 122 -1
66 -34 105 -359 422 -177 173 -321 320 -319 327 3 13 196 170 383 311 1044
786 2265 1315 3582 1552 519 94 948 132 1483 132 441 1 733 -17 1150 -72 1721
-223 3353 -971 4697 -2152 83 -73 157 -130 178 -137 75 -25 150 15 181 96 28
75 14 102 -145 271 -133 142 -420 416 -601 575 -766 670 -1667 1229 -2590
1605 -973 397 -1969 625 -3024 693 -228 14 -729 20 -946 10z"/>
<path d="M19254 25731 c-23 -10 -48 -29 -57 -41 -8 -12 -104 -268 -213 -569
-108 -300 -201 -550 -205 -555 -4 -4 -78 -12 -166 -17 -419 -24 -790 -91
-1193 -216 l-145 -45 -20 24 c-11 13 -184 218 -384 456 -200 238 -376 439
-392 447 -15 8 -47 15 -70 15 -37 0 -105 -36 -543 -287 -276 -157 -512 -296
-524 -307 -34 -30 -52 -69 -52 -113 0 -25 71 -234 201 -591 l202 -553 -172
-166 c-308 -297 -535 -574 -750 -913 -30 -47 -55 -86 -56 -88 -2 -2 -261 42
-576 98 -316 55 -590 100 -609 100 -41 0 -92 -29 -116 -65 -15 -23 -381 -1033
-403 -1112 -12 -44 3 -99 37 -132 15 -15 256 -159 535 -321 l508 -295 -5 -30
c-70 -403 -72 -1045 -5 -1419 6 -32 7 -62 2 -67 -5 -5 -234 -140 -508 -299
-275 -160 -512 -303 -528 -318 -39 -37 -50 -88 -33 -143 13 -43 333 -936 376
-1052 23 -62 65 -103 116 -113 17 -3 265 36 608 96 318 55 585 100 593 98 8
-2 51 -59 95 -128 209 -326 495 -669 769 -920 63 -57 115 -107 117 -112 2 -4
-87 -255 -197 -557 -147 -402 -201 -562 -201 -594 0 -85 0 -86 555 -406 544
-313 557 -320 626 -287 24 11 152 156 419 472 263 312 389 454 400 451 441
-129 611 -169 867 -207 168 -24 450 -50 550 -50 68 0 71 -1 81 -27 194 -547
398 -1093 415 -1111 29 -32 70 -52 104 -52 15 0 284 45 596 99 389 68 578 105
600 118 17 10 40 34 52 53 19 34 20 54 25 639 l5 604 135 57 c384 162 695 340
1020 584 74 55 140 104 147 109 7 4 219 -113 525 -290 553 -320 566 -325 636
-289 19 10 182 195 409 466 400 477 411 494 392 565 -7 25 -129 179 -393 495
l-382 460 84 167 c113 223 190 408 267 638 61 180 135 457 150 558 4 25 12 52
19 60 7 9 215 50 586 116 316 56 590 109 607 118 18 8 43 32 55 52 l23 36 0
600 c0 585 0 601 -20 635 -12 19 -35 43 -53 53 -22 13 -216 52 -614 123 -320
57 -582 105 -584 107 -1 1 -18 74 -38 162 -90 401 -248 830 -428 1164 l-56
104 372 446 c205 246 381 459 390 473 23 35 23 111 0 146 -25 38 -726 872
-758 901 -20 19 -40 26 -84 28 l-57 4 -519 -299 -520 -299 -135 102 c-323 243
-663 439 -1043 600 l-138 59 0 570 c-1 314 -5 591 -9 615 -11 54 -37 91 -82
113 -24 12 -1161 220 -1191 218 -2 0 -22 -9 -44 -19z m-45 -3387 c565 -67
1086 -318 1504 -723 499 -485 778 -1111 803 -1806 26 -725 -249 -1427 -761
-1941 -151 -151 -238 -224 -408 -338 -331 -223 -680 -358 -1087 -421 -143 -22
-465 -31 -615 -16 -616 59 -1172 318 -1609 749 -405 399 -660 890 -757 1456
-27 153 -37 522 -20 688 118 1150 974 2095 2101 2321 280 56 555 66 849 31z"/>
<path d="M26811 23098 c-26 -18 -157 -239 -626 -1051 -326 -566 -595 -1041
-598 -1057 -6 -29 3 -72 22 -109 16 -29 82 -61 128 -61 20 0 227 52 460 115
233 63 425 115 427 115 12 0 68 -429 91 -705 43 -503 35 -1107 -21 -1605 -146
-1306 -615 -2601 -1350 -3721 -412 -629 -920 -1222 -1469 -1713 -762 -683
-1643 -1229 -2615 -1621 -208 -84 -578 -217 -638 -230 -18 -4 -48 -21 -66 -38
-101 -95 -35 -257 104 -257 79 0 570 133 918 250 656 218 1276 503 1876 862
1126 673 2130 1620 2904 2738 414 598 801 1348 1070 2070 405 1089 602 2179
603 3343 1 353 -4 481 -27 791 -8 109 -14 199 -12 200 2 2 224 62 493 134 475
128 491 133 522 166 56 60 54 153 -4 208 -16 14 -293 179 -618 366 -460 265
-594 347 -608 370 -20 35 -89 72 -132 72 -18 0 -142 66 -359 191 -299 173
-336 192 -386 196 -46 4 -61 1 -89 -19z"/>
<path d="M10173 22760 c-18 -10 -39 -31 -49 -45 -23 -36 -75 -207 -149 -500
-338 -1324 -384 -2664 -139 -4010 126 -695 354 -1434 649 -2110 391 -896 934
-1733 1634 -2520 162 -182 575 -593 766 -762 670 -593 1364 -1055 2193 -1460
138 -68 252 -127 252 -131 0 -4 -61 -234 -135 -512 -74 -278 -135 -523 -135
-545 0 -82 60 -139 144 -139 49 0 91 23 1071 588 561 323 1028 595 1039 604
34 31 48 72 44 126 -4 44 -31 96 -197 382 -105 182 -191 341 -191 354 0 35
-30 88 -65 118 -23 18 -144 219 -379 627 -191 330 -358 610 -371 622 -14 12
-43 28 -65 34 -33 10 -47 9 -85 -5 -77 -30 -83 -43 -196 -473 -56 -216 -106
-398 -110 -405 -6 -9 -27 -4 -81 17 -318 123 -873 388 -1163 555 -1037 599
-1931 1408 -2641 2390 -871 1205 -1440 2705 -1589 4185 -54 546 -58 1143 -10
1685 31 341 74 637 146 1006 l42 211 -21 44 c-41 83 -135 114 -209 69z"/>
</g>
</svg>
